<svg xmlns="http://www.w3.org/2000/svg" viewBox="0 0 1469 593" width="1469" height="593">
<style>
  .label { font-family: Helvetica,Arial,sans-serif; }
  .mono  { font-family: "Courier New",Courier,monospace; }
</style>
<rect x="0.0" y="0.0" width="1469.0" height="593.0" fill="white"/>
<rect x="4.0" y="4.0" width="1461.0" height="585.0" fill="none" stroke="#CCC" stroke-width="0.5"/>
<text x="677.0" y="26.0" class="label" font-size="15" font-weight="bold" text-anchor="middle">Cessna 172S Skyhawk — Electrical Single-Line Diagram</text>
<text x="677.0" y="42.0" class="label" font-size="10" text-anchor="middle" fill="#666">C172S   Rev 1.0.0</text>
<rect x="341.0" y="105.0" width="90.0" height="70.0" rx="5" fill="#E8F5E9" stroke="#2E7D32" stroke-width="2"/>
<circle cx="386.0" cy="132.0" r="15.0" fill="none" stroke="#2E7D32" stroke-width="2"/>
<text x="386.0" y="136.0" class="mono" font-size="9" font-weight="bold" text-anchor="middle" fill="#2E7D32">G</text>
<text x="386.0" y="158.0" class="label" font-size="8" font-weight="bold" text-anchor="middle">ALT</text>
<text x="386.0" y="169.0" class="mono" font-size="7" text-anchor="middle" fill="#666">28.5V  60A</text>
<rect x="461.0" y="105.0" width="90.0" height="70.0" rx="5" fill="#FFF8E1" stroke="#F9A825" stroke-width="2"/>
<line x1="492.0" y1="126.0" x2="520.0" y2="126.0" stroke="#F9A825" stroke-width="3.5"/>
<line x1="498.0" y1="133.0" x2="514.0" y2="133.0" stroke="#F9A825" stroke-width="3.5"/>
<text x="506.0" y="144.0" class="mono" font-size="8" text-anchor="middle" fill="#444">35Ah</text>
<text x="506.0" y="158.0" class="label" font-size="8" font-weight="bold" text-anchor="middle">BATT</text>
<text x="506.0" y="169.0" class="mono" font-size="7" text-anchor="middle" fill="#666">24.0V  ?A</text>
<rect x="581.0" y="105.0" width="90.0" height="70.0" rx="5" fill="#E3F2FD" stroke="#1565C0" stroke-width="2"/>
<circle cx="626.0" cy="132.0" r="15.0" fill="none" stroke="#1565C0" stroke-width="2"/>
<text x="626.0" y="136.0" class="mono" font-size="9" font-weight="bold" text-anchor="middle" fill="#1565C0">G</text>
<text x="626.0" y="158.0" class="label" font-size="8" font-weight="bold" text-anchor="middle">EXT PWR</text>
<text x="626.0" y="169.0" class="mono" font-size="7" text-anchor="middle" fill="#666">28.0V  100A</text>
<rect x="50.0" y="255.0" width="912.0" height="7.0" fill="#37474F" rx="1"/>
<text x="506.0" y="249.0" class="label" font-size="8" font-weight="bold" text-anchor="middle" fill="#37474F">PRIMARY BUS    28.0V DC  [shed P3]</text>
<rect x="185.0" y="432.0" width="552.0" height="7.0" fill="#37474F" rx="1"/>
<text x="461.0" y="426.0" class="label" font-size="8" font-weight="bold" text-anchor="middle" fill="#37474F">AVIONICS BUS    28.0V DC  [shed P2]</text>
<rect x="787.0" y="432.0" width="282.0" height="7.0" fill="#C62828" rx="1"/>
<text x="928.0" y="426.0" class="label" font-size="8" font-weight="bold" text-anchor="middle" fill="#C62828">ESSENTIAL BUS    28.0V DC  [ESSENTIAL]</text>
<rect x="1012.0" y="255.0" width="192.0" height="7.0" fill="#C62828" rx="1"/>
<text x="1108.0" y="249.0" class="label" font-size="8" font-weight="bold" text-anchor="middle" fill="#C62828">HOT BATT BUS    24.0V DC  [ESSENTIAL]</text>
<line x1="386.0" y1="175.0" x2="386.0" y2="204.0" stroke="#333" stroke-width="1.5"/>
<line x1="386.0" y1="226.0" x2="386.0" y2="255.0" stroke="#333" stroke-width="1.5"/>
<circle cx="386.0" cy="224.0" r="2.5" fill="#333" stroke="none"/>
<circle cx="386.0" cy="206.0" r="2.5" fill="none" stroke="#333" stroke-width="1.5"/>
<line x1="386.0" y1="222.0" x2="395.0" y2="206.0" stroke="#333" stroke-width="2"/>
<rect x="401.0" y="210.0" width="10.0" height="10.0" fill="none" stroke="#333" stroke-width="1"/>
<line x1="389.0" y1="215.0" x2="401.0" y2="215.0" stroke="#333" stroke-width="0.8" stroke-dasharray="2,1"/>
<text x="414.0" y="211.0" class="label" font-size="7" fill="#444">ALT (master)</text>
<text x="414.0" y="220.0" class="mono" font-size="6" fill="#888">[P]</text>
<line x1="506.0" y1="175.0" x2="506.0" y2="204.0" stroke="#333" stroke-width="1.5"/>
<line x1="506.0" y1="226.0" x2="506.0" y2="255.0" stroke="#333" stroke-width="1.5"/>
<circle cx="506.0" cy="224.0" r="2.5" fill="#333" stroke="none"/>
<circle cx="506.0" cy="206.0" r="2.5" fill="none" stroke="#333" stroke-width="1.5"/>
<line x1="506.0" y1="222.0" x2="515.0" y2="206.0" stroke="#333" stroke-width="2"/>
<text x="518.0" y="211.0" class="label" font-size="7" fill="#444">BATT (master)</text>
<text x="518.0" y="220.0" class="mono" font-size="6" fill="#888">[P]</text>
<line x1="626.0" y1="175.0" x2="626.0" y2="204.0" stroke="#333" stroke-width="1.5"/>
<line x1="626.0" y1="226.0" x2="626.0" y2="255.0" stroke="#333" stroke-width="1.5"/>
<circle cx="626.0" cy="224.0" r="2.5" fill="#333" stroke="none"/>
<circle cx="626.0" cy="206.0" r="2.5" fill="none" stroke="#333" stroke-width="1.5"/>
<line x1="626.0" y1="222.0" x2="635.0" y2="206.0" stroke="#333" stroke-width="2"/>
<rect x="641.0" y="210.0" width="10.0" height="10.0" fill="none" stroke="#333" stroke-width="1"/>
<line x1="629.0" y1="215.0" x2="641.0" y2="215.0" stroke="#333" stroke-width="0.8" stroke-dasharray="2,1"/>
<text x="654.0" y="211.0" class="label" font-size="7" fill="#444">EXT PWR</text>
<text x="654.0" y="220.0" class="mono" font-size="6" fill="#888">[P]</text>
<line x1="461.0" y1="262.0" x2="461.0" y2="336.0" stroke="#333" stroke-width="1.5"/>
<line x1="461.0" y1="358.0" x2="461.0" y2="432.0" stroke="#333" stroke-width="1.5"/>
<circle cx="461.0" cy="356.0" r="2.5" fill="#333" stroke="none"/>
<circle cx="461.0" cy="338.0" r="2.5" fill="none" stroke="#333" stroke-width="1.5"/>
<line x1="461.0" y1="354.0" x2="470.0" y2="338.0" stroke="#333" stroke-width="2"/>
<text x="473.0" y="343.0" class="label" font-size="7" fill="#444">AVIONICS MASTER</text>
<text x="473.0" y="352.0" class="mono" font-size="6" fill="#888">[P]</text>
<line x1="928.0" y1="262.0" x2="928.0" y2="336.0" stroke="#333" stroke-width="1.5"/>
<line x1="928.0" y1="358.0" x2="928.0" y2="432.0" stroke="#333" stroke-width="1.5"/>
<circle cx="928.0" cy="356.0" r="2.5" fill="#333" stroke="none"/>
<circle cx="928.0" cy="338.0" r="2.5" fill="#333" stroke="none"/>
<line x1="928.0" y1="354.0" x2="928.0" y2="340.0" stroke="#333" stroke-width="2"/>
<rect x="943.0" y="342.0" width="10.0" height="10.0" fill="none" stroke="#333" stroke-width="1"/>
<line x1="931.0" y1="347.0" x2="943.0" y2="347.0" stroke="#333" stroke-width="0.8" stroke-dasharray="2,1"/>
<text x="956.0" y="350.0" class="mono" font-size="5" fill="#999">primary_bus</text>
<text x="956.0" y="343.0" class="label" font-size="7" fill="#444">ESS BUS TIE</text>
<text x="956.0" y="352.0" class="mono" font-size="6" fill="#888">[A]</text>
<line x1="506.0" y1="175.0" x2="1020.0" y2="255.0" stroke="#E65100" stroke-width="2.5" stroke-dasharray="6,3"/>
<text x="771.0" y="215.0" class="label" font-size="7" font-weight="bold" fill="#E65100">DIRECT</text>
<line x1="838.0" y1="439.0" x2="838.0" y2="485.0" stroke="#666" stroke-width="1"/>
<circle cx="838.0" cy="452.8" r="5.0" fill="white" stroke="#C62828" stroke-width="1.4"/>
<line x1="835.0" y1="449.8" x2="841.0" y2="455.8" stroke="#C62828" stroke-width="1.2"/>
<line x1="835.0" y1="455.8" x2="841.0" y2="449.8" stroke="#C62828" stroke-width="1.2"/>
<text x="846.0" y="455.8" class="mono" font-size="6" fill="#C62828">5.0A</text>
<rect x="799.0" y="485.0" width="78.0" height="48.0" rx="3" fill="#FFEBEE" stroke="#C62828" stroke-width="1.2"/>
<text x="838.0" y="505.0" class="label" font-size="7" font-weight="bold" text-anchor="middle">COM 1</text>
<text x="838.0" y="516.0" class="mono" font-size="6" text-anchor="middle" fill="#666">2.5A</text>
<text x="838.0" y="525.0" class="mono" font-size="5" text-anchor="middle" fill="#999">vhf_com1</text>
<line x1="928.0" y1="439.0" x2="928.0" y2="485.0" stroke="#666" stroke-width="1"/>
<circle cx="928.0" cy="452.8" r="5.0" fill="white" stroke="#C62828" stroke-width="1.4"/>
<line x1="925.0" y1="449.8" x2="931.0" y2="455.8" stroke="#C62828" stroke-width="1.2"/>
<line x1="925.0" y1="455.8" x2="931.0" y2="449.8" stroke="#C62828" stroke-width="1.2"/>
<text x="936.0" y="455.8" class="mono" font-size="6" fill="#C62828">3.0A</text>
<rect x="889.0" y="485.0" width="78.0" height="48.0" rx="3" fill="#FFEBEE" stroke="#C62828" stroke-width="1.2"/>
<text x="928.0" y="505.0" class="label" font-size="7" font-weight="bold" text-anchor="middle">NAV 1</text>
<text x="928.0" y="516.0" class="mono" font-size="6" text-anchor="middle" fill="#666">1.5A</text>
<text x="928.0" y="525.0" class="mono" font-size="5" text-anchor="middle" fill="#999">vor_ils_1</text>
<line x1="1018.0" y1="439.0" x2="1018.0" y2="485.0" stroke="#666" stroke-width="1"/>
<circle cx="1018.0" cy="452.8" r="5.0" fill="white" stroke="#C62828" stroke-width="1.4"/>
<line x1="1015.0" y1="449.8" x2="1021.0" y2="455.8" stroke="#C62828" stroke-width="1.2"/>
<line x1="1015.0" y1="455.8" x2="1021.0" y2="449.8" stroke="#C62828" stroke-width="1.2"/>
<text x="1026.0" y="455.8" class="mono" font-size="6" fill="#C62828">7.5A</text>
<rect x="979.0" y="485.0" width="78.0" height="48.0" rx="3" fill="#FFEBEE" stroke="#C62828" stroke-width="1.2"/>
<polyline points="1008.0,499.0 1013.0,495.0 1018.0,503.0 1023.0,495.0 1028.0,503.0" fill="none" stroke="#C62828" stroke-width="1"/>
<text x="1018.0" y="513.0" class="label" font-size="7" font-weight="bold" text-anchor="middle">PITOT HEAT</text>
<text x="1018.0" y="524.0" class="mono" font-size="6" text-anchor="middle" fill="#666">4.0A</text>
<text x="1018.0" y="533.0" class="mono" font-size="5" text-anchor="middle" fill="#999">pitot_static</text>
<line x1="236.0" y1="439.0" x2="236.0" y2="485.0" stroke="#666" stroke-width="1"/>
<circle cx="236.0" cy="452.8" r="5.0" fill="white" stroke="#C62828" stroke-width="1.4"/>
<line x1="233.0" y1="449.8" x2="239.0" y2="455.8" stroke="#C62828" stroke-width="1.2"/>
<line x1="233.0" y1="455.8" x2="239.0" y2="449.8" stroke="#C62828" stroke-width="1.2"/>
<text x="244.0" y="455.8" class="mono" font-size="6" fill="#C62828">5.0A</text>
<rect x="197.0" y="485.0" width="78.0" height="48.0" rx="3" fill="#FAFAFA" stroke="#616161" stroke-width="1.2"/>
<text x="236.0" y="505.0" class="label" font-size="7" font-weight="bold" text-anchor="middle">COM 2</text>
<text x="236.0" y="516.0" class="mono" font-size="6" text-anchor="middle" fill="#666">2.5A</text>
<text x="236.0" y="525.0" class="mono" font-size="5" text-anchor="middle" fill="#999">vhf_com2</text>
<line x1="326.0" y1="439.0" x2="326.0" y2="485.0" stroke="#666" stroke-width="1"/>
<circle cx="326.0" cy="452.8" r="5.0" fill="white" stroke="#C62828" stroke-width="1.4"/>
<line x1="323.0" y1="449.8" x2="329.0" y2="455.8" stroke="#C62828" stroke-width="1.2"/>
<line x1="323.0" y1="455.8" x2="329.0" y2="449.8" stroke="#C62828" stroke-width="1.2"/>
<text x="334.0" y="455.8" class="mono" font-size="6" fill="#C62828">3.0A</text>
<rect x="287.0" y="485.0" width="78.0" height="48.0" rx="3" fill="#FAFAFA" stroke="#616161" stroke-width="1.2"/>
<text x="326.0" y="505.0" class="label" font-size="7" font-weight="bold" text-anchor="middle">NAV 2</text>
<text x="326.0" y="516.0" class="mono" font-size="6" text-anchor="middle" fill="#666">1.5A</text>
<text x="326.0" y="525.0" class="mono" font-size="5" text-anchor="middle" fill="#999">vor_ils_2</text>
<line x1="416.0" y1="439.0" x2="416.0" y2="485.0" stroke="#666" stroke-width="1"/>
<circle cx="416.0" cy="452.8" r="5.0" fill="white" stroke="#C62828" stroke-width="1.4"/>
<line x1="413.0" y1="449.8" x2="419.0" y2="455.8" stroke="#C62828" stroke-width="1.2"/>
<line x1="413.0" y1="455.8" x2="419.0" y2="449.8" stroke="#C62828" stroke-width="1.2"/>
<text x="424.0" y="455.8" class="mono" font-size="6" fill="#C62828">5.0A</text>
<rect x="377.0" y="485.0" width="78.0" height="48.0" rx="3" fill="#FAFAFA" stroke="#616161" stroke-width="1.2"/>
<text x="416.0" y="505.0" class="label" font-size="7" font-weight="bold" text-anchor="middle">GPS</text>
<text x="416.0" y="516.0" class="mono" font-size="6" text-anchor="middle" fill="#666">2.0A</text>
<text x="416.0" y="525.0" class="mono" font-size="5" text-anchor="middle" fill="#999">gps_nav</text>
<line x1="506.0" y1="439.0" x2="506.0" y2="485.0" stroke="#666" stroke-width="1"/>
<circle cx="506.0" cy="452.8" r="5.0" fill="white" stroke="#C62828" stroke-width="1.4"/>
<line x1="503.0" y1="449.8" x2="509.0" y2="455.8" stroke="#C62828" stroke-width="1.2"/>
<line x1="503.0" y1="455.8" x2="509.0" y2="449.8" stroke="#C62828" stroke-width="1.2"/>
<text x="514.0" y="455.8" class="mono" font-size="6" fill="#C62828">5.0A</text>
<rect x="467.0" y="485.0" width="78.0" height="48.0" rx="3" fill="#FAFAFA" stroke="#616161" stroke-width="1.2"/>
<text x="506.0" y="505.0" class="label" font-size="7" font-weight="bold" text-anchor="middle">XPDR</text>
<text x="506.0" y="516.0" class="mono" font-size="6" text-anchor="middle" fill="#666">2.0A</text>
<text x="506.0" y="525.0" class="mono" font-size="5" text-anchor="middle" fill="#999">transponder</text>
<line x1="596.0" y1="439.0" x2="596.0" y2="485.0" stroke="#666" stroke-width="1"/>
<circle cx="596.0" cy="452.8" r="5.0" fill="white" stroke="#C62828" stroke-width="1.4"/>
<line x1="593.0" y1="449.8" x2="599.0" y2="455.8" stroke="#C62828" stroke-width="1.2"/>
<line x1="593.0" y1="455.8" x2="599.0" y2="449.8" stroke="#C62828" stroke-width="1.2"/>
<text x="604.0" y="455.8" class="mono" font-size="6" fill="#C62828">5.0A</text>
<rect x="557.0" y="485.0" width="78.0" height="48.0" rx="3" fill="#FAFAFA" stroke="#616161" stroke-width="1.2"/>
<text x="596.0" y="505.0" class="label" font-size="7" font-weight="bold" text-anchor="middle">AUTOPILOT</text>
<text x="596.0" y="516.0" class="mono" font-size="6" text-anchor="middle" fill="#666">3.5A</text>
<text x="596.0" y="525.0" class="mono" font-size="5" text-anchor="middle" fill="#999">afcs</text>
<line x1="686.0" y1="439.0" x2="686.0" y2="485.0" stroke="#666" stroke-width="1"/>
<circle cx="686.0" cy="452.8" r="5.0" fill="white" stroke="#C62828" stroke-width="1.4"/>
<line x1="683.0" y1="449.8" x2="689.0" y2="455.8" stroke="#C62828" stroke-width="1.2"/>
<line x1="683.0" y1="455.8" x2="689.0" y2="449.8" stroke="#C62828" stroke-width="1.2"/>
<text x="694.0" y="455.8" class="mono" font-size="6" fill="#C62828">2.0A</text>
<rect x="647.0" y="485.0" width="78.0" height="48.0" rx="3" fill="#FAFAFA" stroke="#616161" stroke-width="1.2"/>
<text x="686.0" y="505.0" class="label" font-size="7" font-weight="bold" text-anchor="middle">AUDIO PNL</text>
<text x="686.0" y="516.0" class="mono" font-size="6" text-anchor="middle" fill="#666">0.5A</text>
<text x="686.0" y="525.0" class="mono" font-size="5" text-anchor="middle" fill="#999">audio_panel</text>
<line x1="101.0" y1="262.0" x2="101.0" y2="308.0" stroke="#666" stroke-width="1"/>
<circle cx="101.0" cy="275.8" r="5.0" fill="white" stroke="#C62828" stroke-width="1.4"/>
<line x1="98.0" y1="272.8" x2="104.0" y2="278.8" stroke="#C62828" stroke-width="1.2"/>
<line x1="98.0" y1="278.8" x2="104.0" y2="272.8" stroke="#C62828" stroke-width="1.2"/>
<text x="109.0" y="278.8" class="mono" font-size="6" fill="#C62828">7.5A</text>
<rect x="62.0" y="308.0" width="78.0" height="48.0" rx="3" fill="#E8F5E9" stroke="#2E7D32" stroke-width="1.2"/>
<circle cx="101.0" cy="324.0" r="9.0" fill="none" stroke="#2E7D32" stroke-width="1.2"/>
<text x="101.0" y="327.0" class="label" font-size="9" font-weight="bold" text-anchor="middle" fill="#2E7D32">M</text>
<text x="101.0" y="339.0" class="label" font-size="7" font-weight="bold" text-anchor="middle">FUEL PUMP</text>
<text x="101.0" y="350.0" class="mono" font-size="6" text-anchor="middle" fill="#666">4.0A</text>
<text x="101.0" y="359.0" class="mono" font-size="5" text-anchor="middle" fill="#999">fuel_boost</text>
<line x1="191.0" y1="262.0" x2="191.0" y2="308.0" stroke="#666" stroke-width="1"/>
<circle cx="191.0" cy="275.8" r="5.0" fill="white" stroke="#C62828" stroke-width="1.4"/>
<line x1="188.0" y1="272.8" x2="194.0" y2="278.8" stroke="#C62828" stroke-width="1.2"/>
<line x1="188.0" y1="278.8" x2="194.0" y2="272.8" stroke="#C62828" stroke-width="1.2"/>
<text x="199.0" y="278.8" class="mono" font-size="6" fill="#C62828">15.0A</text>
<rect x="152.0" y="308.0" width="78.0" height="48.0" rx="3" fill="#E8F5E9" stroke="#2E7D32" stroke-width="1.2"/>
<circle cx="191.0" cy="324.0" r="9.0" fill="none" stroke="#2E7D32" stroke-width="1.2"/>
<text x="191.0" y="327.0" class="label" font-size="9" font-weight="bold" text-anchor="middle" fill="#2E7D32">M</text>
<text x="191.0" y="339.0" class="label" font-size="7" font-weight="bold" text-anchor="middle">FLAPS</text>
<text x="191.0" y="350.0" class="mono" font-size="6" text-anchor="middle" fill="#666">8.0A</text>
<text x="191.0" y="359.0" class="mono" font-size="5" text-anchor="middle" fill="#999">flap_motor</text>
<line x1="281.0" y1="262.0" x2="281.0" y2="308.0" stroke="#666" stroke-width="1"/>
<circle cx="281.0" cy="275.8" r="5.0" fill="white" stroke="#C62828" stroke-width="1.4"/>
<line x1="278.0" y1="272.8" x2="284.0" y2="278.8" stroke="#C62828" stroke-width="1.2"/>
<line x1="278.0" y1="278.8" x2="284.0" y2="272.8" stroke="#C62828" stroke-width="1.2"/>
<text x="289.0" y="278.8" class="mono" font-size="6" fill="#C62828">2.0A</text>
<rect x="242.0" y="308.0" width="78.0" height="48.0" rx="3" fill="#FAFAFA" stroke="#616161" stroke-width="1.2"/>
<text x="281.0" y="328.0" class="label" font-size="7" font-weight="bold" text-anchor="middle">TURN COORD</text>
<text x="281.0" y="339.0" class="mono" font-size="6" text-anchor="middle" fill="#666">0.5A</text>
<text x="281.0" y="348.0" class="mono" font-size="5" text-anchor="middle" fill="#999">turn_coordinator</text>
<line x1="371.0" y1="262.0" x2="371.0" y2="308.0" stroke="#666" stroke-width="1"/>
<circle cx="371.0" cy="275.8" r="5.0" fill="white" stroke="#C62828" stroke-width="1.4"/>
<line x1="368.0" y1="272.8" x2="374.0" y2="278.8" stroke="#C62828" stroke-width="1.2"/>
<line x1="368.0" y1="278.8" x2="374.0" y2="272.8" stroke="#C62828" stroke-width="1.2"/>
<text x="379.0" y="278.8" class="mono" font-size="6" fill="#C62828">15.0A</text>
<rect x="332.0" y="308.0" width="78.0" height="48.0" rx="3" fill="#FFF3E0" stroke="#E65100" stroke-width="1.2"/>
<polyline points="361.0,322.0 366.0,318.0 371.0,326.0 376.0,318.0 381.0,326.0" fill="none" stroke="#E65100" stroke-width="1"/>
<text x="371.0" y="336.0" class="label" font-size="7" font-weight="bold" text-anchor="middle">LANDING LT</text>
<text x="371.0" y="347.0" class="mono" font-size="6" text-anchor="middle" fill="#666">8.0A</text>
<text x="371.0" y="356.0" class="mono" font-size="5" text-anchor="middle" fill="#999">external_lights</text>
<line x1="461.0" y1="262.0" x2="461.0" y2="308.0" stroke="#666" stroke-width="1"/>
<circle cx="461.0" cy="275.8" r="5.0" fill="white" stroke="#C62828" stroke-width="1.4"/>
<line x1="458.0" y1="272.8" x2="464.0" y2="278.8" stroke="#C62828" stroke-width="1.2"/>
<line x1="458.0" y1="278.8" x2="464.0" y2="272.8" stroke="#C62828" stroke-width="1.2"/>
<text x="469.0" y="278.8" class="mono" font-size="6" fill="#C62828">5.0A</text>
<rect x="422.0" y="308.0" width="78.0" height="48.0" rx="3" fill="#FFF3E0" stroke="#E65100" stroke-width="1.2"/>
<polyline points="451.0,322.0 456.0,318.0 461.0,326.0 466.0,318.0 471.0,326.0" fill="none" stroke="#E65100" stroke-width="1"/>
<text x="461.0" y="336.0" class="label" font-size="7" font-weight="bold" text-anchor="middle">TAXI LT</text>
<text x="461.0" y="347.0" class="mono" font-size="6" text-anchor="middle" fill="#666">3.5A</text>
<text x="461.0" y="356.0" class="mono" font-size="5" text-anchor="middle" fill="#999">external_lights</text>
<line x1="551.0" y1="262.0" x2="551.0" y2="308.0" stroke="#666" stroke-width="1"/>
<circle cx="551.0" cy="275.8" r="5.0" fill="white" stroke="#C62828" stroke-width="1.4"/>
<line x1="548.0" y1="272.8" x2="554.0" y2="278.8" stroke="#C62828" stroke-width="1.2"/>
<line x1="548.0" y1="278.8" x2="554.0" y2="272.8" stroke="#C62828" stroke-width="1.2"/>
<text x="559.0" y="278.8" class="mono" font-size="6" fill="#C62828">5.0A</text>
<rect x="512.0" y="308.0" width="78.0" height="48.0" rx="3" fill="#FFF3E0" stroke="#E65100" stroke-width="1.2"/>
<polyline points="541.0,322.0 546.0,318.0 551.0,326.0 556.0,318.0 561.0,326.0" fill="none" stroke="#E65100" stroke-width="1"/>
<text x="551.0" y="336.0" class="label" font-size="7" font-weight="bold" text-anchor="middle">NAV LT</text>
<text x="551.0" y="347.0" class="mono" font-size="6" text-anchor="middle" fill="#666">2.0A</text>
<text x="551.0" y="356.0" class="mono" font-size="5" text-anchor="middle" fill="#999">external_lights</text>
<line x1="641.0" y1="262.0" x2="641.0" y2="308.0" stroke="#666" stroke-width="1"/>
<circle cx="641.0" cy="275.8" r="5.0" fill="white" stroke="#C62828" stroke-width="1.4"/>
<line x1="638.0" y1="272.8" x2="644.0" y2="278.8" stroke="#C62828" stroke-width="1.2"/>
<line x1="638.0" y1="278.8" x2="644.0" y2="272.8" stroke="#C62828" stroke-width="1.2"/>
<text x="649.0" y="278.8" class="mono" font-size="6" fill="#C62828">5.0A</text>
<rect x="602.0" y="308.0" width="78.0" height="48.0" rx="3" fill="#FFF3E0" stroke="#E65100" stroke-width="1.2"/>
<polyline points="631.0,322.0 636.0,318.0 641.0,326.0 646.0,318.0 651.0,326.0" fill="none" stroke="#E65100" stroke-width="1"/>
<text x="641.0" y="336.0" class="label" font-size="7" font-weight="bold" text-anchor="middle">STROBE LT</text>
<text x="641.0" y="347.0" class="mono" font-size="6" text-anchor="middle" fill="#666">2.0A</text>
<text x="641.0" y="356.0" class="mono" font-size="5" text-anchor="middle" fill="#999">external_lights</text>
<line x1="731.0" y1="262.0" x2="731.0" y2="308.0" stroke="#666" stroke-width="1"/>
<circle cx="731.0" cy="275.8" r="5.0" fill="white" stroke="#C62828" stroke-width="1.4"/>
<line x1="728.0" y1="272.8" x2="734.0" y2="278.8" stroke="#C62828" stroke-width="1.2"/>
<line x1="728.0" y1="278.8" x2="734.0" y2="272.8" stroke="#C62828" stroke-width="1.2"/>
<text x="739.0" y="278.8" class="mono" font-size="6" fill="#C62828">3.0A</text>
<rect x="692.0" y="308.0" width="78.0" height="48.0" rx="3" fill="#FFF3E0" stroke="#E65100" stroke-width="1.2"/>
<polyline points="721.0,322.0 726.0,318.0 731.0,326.0 736.0,318.0 741.0,326.0" fill="none" stroke="#E65100" stroke-width="1"/>
<text x="731.0" y="336.0" class="label" font-size="7" font-weight="bold" text-anchor="middle">BEACON</text>
<text x="731.0" y="347.0" class="mono" font-size="6" text-anchor="middle" fill="#666">1.5A</text>
<text x="731.0" y="356.0" class="mono" font-size="5" text-anchor="middle" fill="#999">external_lights</text>
<line x1="821.0" y1="262.0" x2="821.0" y2="308.0" stroke="#666" stroke-width="1"/>
<circle cx="821.0" cy="275.8" r="5.0" fill="white" stroke="#C62828" stroke-width="1.4"/>
<line x1="818.0" y1="272.8" x2="824.0" y2="278.8" stroke="#C62828" stroke-width="1.2"/>
<line x1="818.0" y1="278.8" x2="824.0" y2="272.8" stroke="#C62828" stroke-width="1.2"/>
<text x="829.0" y="278.8" class="mono" font-size="6" fill="#C62828">3.0A</text>
<rect x="782.0" y="308.0" width="78.0" height="48.0" rx="3" fill="#FFF3E0" stroke="#E65100" stroke-width="1.2"/>
<polyline points="811.0,322.0 816.0,318.0 821.0,326.0 826.0,318.0 831.0,326.0" fill="none" stroke="#E65100" stroke-width="1"/>
<text x="821.0" y="336.0" class="label" font-size="7" font-weight="bold" text-anchor="middle">INST LT</text>
<text x="821.0" y="347.0" class="mono" font-size="6" text-anchor="middle" fill="#666">1.5A</text>
<text x="821.0" y="356.0" class="mono" font-size="5" text-anchor="middle" fill="#999">panel_lighting</text>
<line x1="911.0" y1="262.0" x2="911.0" y2="308.0" stroke="#666" stroke-width="1"/>
<circle cx="911.0" cy="275.8" r="5.0" fill="white" stroke="#C62828" stroke-width="1.4"/>
<line x1="908.0" y1="272.8" x2="914.0" y2="278.8" stroke="#C62828" stroke-width="1.2"/>
<line x1="908.0" y1="278.8" x2="914.0" y2="272.8" stroke="#C62828" stroke-width="1.2"/>
<text x="919.0" y="278.8" class="mono" font-size="6" fill="#C62828">80.0A</text>
<rect x="872.0" y="308.0" width="78.0" height="48.0" rx="3" fill="#E8F5E9" stroke="#2E7D32" stroke-width="1.2"/>
<circle cx="911.0" cy="324.0" r="9.0" fill="none" stroke="#2E7D32" stroke-width="1.2"/>
<text x="911.0" y="327.0" class="label" font-size="9" font-weight="bold" text-anchor="middle" fill="#2E7D32">M</text>
<text x="911.0" y="339.0" class="label" font-size="7" font-weight="bold" text-anchor="middle">STARTER</text>
<text x="911.0" y="350.0" class="mono" font-size="6" text-anchor="middle" fill="#666">50.0A</text>
<text x="911.0" y="359.0" class="mono" font-size="5" text-anchor="middle" fill="#999">engine_start</text>
<line x1="1063.0" y1="262.0" x2="1063.0" y2="308.0" stroke="#666" stroke-width="1"/>
<circle cx="1063.0" cy="275.8" r="5.0" fill="white" stroke="#C62828" stroke-width="1.4"/>
<line x1="1060.0" y1="272.8" x2="1066.0" y2="278.8" stroke="#C62828" stroke-width="1.2"/>
<line x1="1060.0" y1="278.8" x2="1066.0" y2="272.8" stroke="#C62828" stroke-width="1.2"/>
<text x="1071.0" y="278.8" class="mono" font-size="6" fill="#C62828">1.0A</text>
<rect x="1024.0" y="308.0" width="78.0" height="48.0" rx="3" fill="#FFEBEE" stroke="#C62828" stroke-width="1.2"/>
<text x="1063.0" y="328.0" class="label" font-size="7" font-weight="bold" text-anchor="middle">CLOCK</text>
<text x="1063.0" y="339.0" class="mono" font-size="6" text-anchor="middle" fill="#666">0.1A</text>
<text x="1063.0" y="348.0" class="mono" font-size="5" text-anchor="middle" fill="#999">clock</text>
<line x1="1153.0" y1="262.0" x2="1153.0" y2="308.0" stroke="#666" stroke-width="1"/>
<circle cx="1153.0" cy="275.8" r="5.0" fill="white" stroke="#C62828" stroke-width="1.4"/>
<line x1="1150.0" y1="272.8" x2="1156.0" y2="278.8" stroke="#C62828" stroke-width="1.2"/>
<line x1="1150.0" y1="278.8" x2="1156.0" y2="272.8" stroke="#C62828" stroke-width="1.2"/>
<text x="1161.0" y="278.8" class="mono" font-size="6" fill="#C62828">1.0A</text>
<rect x="1114.0" y="308.0" width="78.0" height="48.0" rx="3" fill="#FFEBEE" stroke="#C62828" stroke-width="1.2"/>
<text x="1153.0" y="328.0" class="label" font-size="7" font-weight="bold" text-anchor="middle">ELT</text>
<text x="1153.0" y="339.0" class="mono" font-size="6" text-anchor="middle" fill="#666">0.05A</text>
<text x="1153.0" y="348.0" class="mono" font-size="5" text-anchor="middle" fill="#999">emergency_locator</text>
<rect x="1259.0" y="105.0" width="185.0" height="260.0" rx="4" fill="#F5F5F5" stroke="#BDBDBD" stroke-width="1"/>
<text x="1351.5" y="121.0" class="label" font-size="10" font-weight="bold" text-anchor="middle">LEGEND</text>
<circle cx="1281.0" cy="141.0" r="2.5" fill="#333" stroke="none"/>
<circle cx="1281.0" cy="129.0" r="2.5" fill="none" stroke="#333" stroke-width="1.3"/>
<line x1="1281.0" y1="139.0" x2="1289.0" y2="129.0" stroke="#333" stroke-width="1.8"/>
<text x="1299.0" y="137.0" class="label" font-size="7" fill="#333">Normally Open switch</text>
<circle cx="1281.0" cy="165.0" r="2.5" fill="#333" stroke="none"/>
<circle cx="1281.0" cy="153.0" r="2.5" fill="#333" stroke="none"/>
<line x1="1281.0" y1="163.0" x2="1281.0" y2="155.0" stroke="#333" stroke-width="1.8"/>
<text x="1299.0" y="161.0" class="label" font-size="7" fill="#333">Normally Closed switch</text>
<rect x="1277.0" y="184.0" width="8.0" height="8.0" fill="none" stroke="#333" stroke-width="1"/>
<text x="1299.0" y="190.0" class="label" font-size="7" fill="#333">Contactor / Relay coil</text>
<circle cx="1281.0" cy="211.0" r="4.0" fill="white" stroke="#C62828" stroke-width="1.3"/>
<line x1="1279.0" y1="209.0" x2="1283.0" y2="213.0" stroke="#C62828" stroke-width="1"/>
<line x1="1279.0" y1="213.0" x2="1283.0" y2="209.0" stroke="#C62828" stroke-width="1"/>
<text x="1299.0" y="214.0" class="label" font-size="7" fill="#333">Circuit Breaker</text>
<line x1="1273.0" y1="233.0" x2="1289.0" y2="233.0" stroke="#E65100" stroke-width="2" stroke-dasharray="4,2"/>
<text x="1299.0" y="236.0" class="label" font-size="7" fill="#333">Direct connection</text>
<text x="1273.0" y="255.0" class="mono" font-size="7" fill="#555">[P] Pilot   [A] Auto</text>
<rect x="1273.0" y="274.0" width="18.0" height="6.0" fill="#37474F" rx="1"/>
<text x="1299.0" y="279.0" class="label" font-size="7" fill="#333">Normal bus</text>
<rect x="1273.0" y="290.0" width="18.0" height="6.0" fill="#C62828" rx="1"/>
<text x="1299.0" y="295.0" class="label" font-size="7" fill="#333">Essential bus</text>
<rect x="1273.0" y="306.0" width="18.0" height="6.0" fill="#E65100" rx="1"/>
<text x="1299.0" y="311.0" class="label" font-size="7" fill="#333">Low-shed-priority bus</text>
<rect x="1273.0" y="326.0" width="18.0" height="11.0" rx="2" fill="#FFEBEE" stroke="#C62828" stroke-width="1"/>
<text x="1299.0" y="334.0" class="label" font-size="7" fill="#333">Essential load</text>
<rect x="1273.0" y="343.0" width="18.0" height="11.0" rx="2" fill="#E8F5E9" stroke="#2E7D32" stroke-width="1"/>
<text x="1299.0" y="351.0" class="label" font-size="7" fill="#333">Motor load</text>
<rect x="1273.0" y="360.0" width="18.0" height="11.0" rx="2" fill="#FFF3E0" stroke="#E65100" stroke-width="1"/>
<text x="1299.0" y="368.0" class="label" font-size="7" fill="#333">Resistive load</text>
<rect x="1273.0" y="377.0" width="18.0" height="11.0" rx="2" fill="#FAFAFA" stroke="#616161" stroke-width="1"/>
<text x="1299.0" y="385.0" class="label" font-size="7" fill="#333">Standard load</text>
<rect x="1259.0" y="375.0" width="185.0" height="84.0" rx="4" fill="#FFF8E1" stroke="#FFB300" stroke-width="1"/>
<text x="1351.5" y="391.0" class="label" font-size="9" font-weight="bold" text-anchor="middle" fill="#E65100">CAS ALERTS</text>
<text x="1269.0" y="407.0" class="mono" font-size="7" fill="#C62828">[W] ALT FAIL</text>
<text x="1273.0" y="416.0" class="mono" font-size="5" fill="#999">source_fail alternator</text>
<text x="1269.0" y="427.0" class="mono" font-size="7" fill="#E65100">[C] LOW VOLTS</text>
<text x="1273.0" y="436.0" class="mono" font-size="5" fill="#999">low_voltage primary_bus &lt;24.0</text>
<text x="1269.0" y="447.0" class="mono" font-size="7" fill="#E65100">[C] BATT LOW</text>
<text x="1273.0" y="456.0" class="mono" font-size="5" fill="#999">low_soc battery &lt;25</text>
<text x="1269.0" y="467.0" class="mono" font-size="7" fill="#C62828">[W] BATT DEPLETED</text>
<text x="1273.0" y="476.0" class="mono" font-size="5" fill="#999">low_soc battery &lt;5</text>
</svg>