<svg xmlns="http://www.w3.org/2000/svg" viewBox="0 0 1399 593" width="1399" height="593">
<style>
  .label { font-family: Helvetica,Arial,sans-serif; }
  .mono  { font-family: "Courier New",Courier,monospace; }
</style>
<rect x="0.0" y="0.0" width="1399.0" height="593.0" fill="white"/>
<rect x="4.0" y="4.0" width="1391.0" height="585.0" fill="none" stroke="#CCC" stroke-width="0.5"/>
<text x="642.0" y="26.0" class="label" font-size="15" font-weight="bold" text-anchor="middle">Eurocopter EC135 — Electrical Single-Line Diagram</text>
<text x="642.0" y="42.0" class="label" font-size="10" text-anchor="middle" fill="#666">EC135-P2   Rev 1.0.0</text>
<rect x="11.0" y="105.0" width="90.0" height="70.0" rx="5" fill="#E8F5E9" stroke="#2E7D32" stroke-width="2"/>
<circle cx="56.0" cy="132.0" r="15.0" fill="none" stroke="#2E7D32" stroke-width="2"/>
<text x="56.0" y="136.0" class="mono" font-size="8" font-weight="bold" text-anchor="middle" fill="#2E7D32">S/G</text>
<text x="56.0" y="158.0" class="label" font-size="8" font-weight="bold" text-anchor="middle">GEN 1</text>
<text x="56.0" y="169.0" class="mono" font-size="7" text-anchor="middle" fill="#666">28.5V  200A</text>
<rect x="131.0" y="105.0" width="90.0" height="70.0" rx="5" fill="#E8F5E9" stroke="#2E7D32" stroke-width="2"/>
<circle cx="176.0" cy="132.0" r="15.0" fill="none" stroke="#2E7D32" stroke-width="2"/>
<text x="176.0" y="136.0" class="mono" font-size="8" font-weight="bold" text-anchor="middle" fill="#2E7D32">S/G</text>
<text x="176.0" y="158.0" class="label" font-size="8" font-weight="bold" text-anchor="middle">GEN 2</text>
<text x="176.0" y="169.0" class="mono" font-size="7" text-anchor="middle" fill="#666">28.5V  200A</text>
<rect x="251.0" y="105.0" width="90.0" height="70.0" rx="5" fill="#F1F8E9" stroke="#558B2F" stroke-width="2"/>
<circle cx="296.0" cy="132.0" r="15.0" fill="none" stroke="#558B2F" stroke-width="2"/>
<text x="296.0" y="136.0" class="mono" font-size="9" font-weight="bold" text-anchor="middle" fill="#558B2F">G</text>
<text x="296.0" y="158.0" class="label" font-size="8" font-weight="bold" text-anchor="middle">APU GEN</text>
<text x="296.0" y="169.0" class="mono" font-size="7" text-anchor="middle" fill="#666">28.5V  150A</text>
<rect x="371.0" y="105.0" width="90.0" height="70.0" rx="5" fill="#E3F2FD" stroke="#1565C0" stroke-width="2"/>
<circle cx="416.0" cy="132.0" r="15.0" fill="none" stroke="#1565C0" stroke-width="2"/>
<text x="416.0" y="136.0" class="mono" font-size="9" font-weight="bold" text-anchor="middle" fill="#1565C0">G</text>
<text x="416.0" y="158.0" class="label" font-size="8" font-weight="bold" text-anchor="middle">EXT PWR</text>
<text x="416.0" y="169.0" class="mono" font-size="7" text-anchor="middle" fill="#666">28.0V  300A</text>
<rect x="497.0" y="105.0" width="90.0" height="70.0" rx="5" fill="#FFF8E1" stroke="#F9A825" stroke-width="2"/>
<line x1="528.0" y1="126.0" x2="556.0" y2="126.0" stroke="#F9A825" stroke-width="3.5"/>
<line x1="534.0" y1="133.0" x2="550.0" y2="133.0" stroke="#F9A825" stroke-width="3.5"/>
<text x="542.0" y="144.0" class="mono" font-size="8" text-anchor="middle" fill="#444">40Ah</text>
<text x="542.0" y="158.0" class="label" font-size="8" font-weight="bold" text-anchor="middle">MAIN BATT</text>
<text x="542.0" y="169.0" class="mono" font-size="7" text-anchor="middle" fill="#666">24.0V  ?A</text>
<rect x="1019.0" y="105.0" width="90.0" height="70.0" rx="5" fill="#FFF8E1" stroke="#F9A825" stroke-width="2"/>
<line x1="1050.0" y1="126.0" x2="1078.0" y2="126.0" stroke="#F9A825" stroke-width="3.5"/>
<line x1="1056.0" y1="133.0" x2="1072.0" y2="133.0" stroke="#F9A825" stroke-width="3.5"/>
<text x="1064.0" y="144.0" class="mono" font-size="8" text-anchor="middle" fill="#444">17Ah</text>
<text x="1064.0" y="158.0" class="label" font-size="8" font-weight="bold" text-anchor="middle">STBY BATT</text>
<text x="1064.0" y="169.0" class="mono" font-size="7" text-anchor="middle" fill="#666">24.0V  ?A</text>
<rect x="50.0" y="255.0" width="372.0" height="7.0" fill="#37474F" rx="1"/>
<text x="236.0" y="249.0" class="label" font-size="8" font-weight="bold" text-anchor="middle" fill="#37474F">MAIN DC BUS    28.0V DC  [shed P3]</text>
<rect x="119.0" y="432.0" width="372.0" height="7.0" fill="#C62828" rx="1"/>
<text x="305.0" y="426.0" class="label" font-size="8" font-weight="bold" text-anchor="middle" fill="#C62828">ESS BUS    28.0V DC  [ESSENTIAL]</text>
<rect x="472.0" y="255.0" width="140.0" height="7.0" fill="#C62828" rx="1"/>
<text x="542.0" y="249.0" class="label" font-size="8" font-weight="bold" text-anchor="middle" fill="#C62828">BATT BUS    24.0V DC  [ESSENTIAL]</text>
<rect x="662.0" y="255.0" width="282.0" height="7.0" fill="#C62828" rx="1"/>
<text x="803.0" y="249.0" class="label" font-size="8" font-weight="bold" text-anchor="middle" fill="#C62828">HOT BATT BUS    24.0V DC  [ESSENTIAL]</text>
<rect x="994.0" y="255.0" width="140.0" height="7.0" fill="#C62828" rx="1"/>
<text x="1064.0" y="249.0" class="label" font-size="8" font-weight="bold" text-anchor="middle" fill="#C62828">STBY BUS    24.0V DC  [ESSENTIAL]</text>
<rect x="541.0" y="432.0" width="282.0" height="7.0" fill="#37474F" rx="1"/>
<text x="682.0" y="426.0" class="label" font-size="8" font-weight="bold" text-anchor="middle" fill="#37474F">AVIONICS BUS    28.0V DC  [shed P2]</text>
<rect x="873.0" y="432.0" width="192.0" height="7.0" fill="#E65100" rx="1"/>
<text x="969.0" y="426.0" class="label" font-size="8" font-weight="bold" text-anchor="middle" fill="#E65100">NON-ESS BUS    28.0V DC  [shed P1]</text>
<line x1="58.0" y1="175.0" x2="58.0" y2="204.0" stroke="#333" stroke-width="1.5"/>
<line x1="58.0" y1="226.0" x2="58.0" y2="255.0" stroke="#333" stroke-width="1.5"/>
<circle cx="58.0" cy="224.0" r="2.5" fill="#333" stroke="none"/>
<circle cx="58.0" cy="206.0" r="2.5" fill="none" stroke="#333" stroke-width="1.5"/>
<line x1="58.0" y1="222.0" x2="67.0" y2="206.0" stroke="#333" stroke-width="2"/>
<rect x="73.0" y="210.0" width="10.0" height="10.0" fill="none" stroke="#333" stroke-width="1"/>
<line x1="61.0" y1="215.0" x2="73.0" y2="215.0" stroke="#333" stroke-width="0.8" stroke-dasharray="2,1"/>
<text x="86.0" y="211.0" class="label" font-size="7" fill="#444">GEN 1</text>
<text x="86.0" y="220.0" class="mono" font-size="6" fill="#888">[P]</text>
<line x1="176.0" y1="175.0" x2="176.0" y2="204.0" stroke="#333" stroke-width="1.5"/>
<line x1="176.0" y1="226.0" x2="176.0" y2="255.0" stroke="#333" stroke-width="1.5"/>
<circle cx="176.0" cy="224.0" r="2.5" fill="#333" stroke="none"/>
<circle cx="176.0" cy="206.0" r="2.5" fill="none" stroke="#333" stroke-width="1.5"/>
<line x1="176.0" y1="222.0" x2="185.0" y2="206.0" stroke="#333" stroke-width="2"/>
<rect x="191.0" y="210.0" width="10.0" height="10.0" fill="none" stroke="#333" stroke-width="1"/>
<line x1="179.0" y1="215.0" x2="191.0" y2="215.0" stroke="#333" stroke-width="0.8" stroke-dasharray="2,1"/>
<text x="204.0" y="211.0" class="label" font-size="7" fill="#444">GEN 2</text>
<text x="204.0" y="220.0" class="mono" font-size="6" fill="#888">[P]</text>
<line x1="296.0" y1="175.0" x2="296.0" y2="204.0" stroke="#333" stroke-width="1.5"/>
<line x1="296.0" y1="226.0" x2="296.0" y2="255.0" stroke="#333" stroke-width="1.5"/>
<circle cx="296.0" cy="224.0" r="2.5" fill="#333" stroke="none"/>
<circle cx="296.0" cy="206.0" r="2.5" fill="none" stroke="#333" stroke-width="1.5"/>
<line x1="296.0" y1="222.0" x2="305.0" y2="206.0" stroke="#333" stroke-width="2"/>
<rect x="311.0" y="210.0" width="10.0" height="10.0" fill="none" stroke="#333" stroke-width="1"/>
<line x1="299.0" y1="215.0" x2="311.0" y2="215.0" stroke="#333" stroke-width="0.8" stroke-dasharray="2,1"/>
<text x="324.0" y="211.0" class="label" font-size="7" fill="#444">APU GEN</text>
<text x="324.0" y="220.0" class="mono" font-size="6" fill="#888">[P]</text>
<line x1="414.0" y1="175.0" x2="414.0" y2="204.0" stroke="#333" stroke-width="1.5"/>
<line x1="414.0" y1="226.0" x2="414.0" y2="255.0" stroke="#333" stroke-width="1.5"/>
<circle cx="414.0" cy="224.0" r="2.5" fill="#333" stroke="none"/>
<circle cx="414.0" cy="206.0" r="2.5" fill="none" stroke="#333" stroke-width="1.5"/>
<line x1="414.0" y1="222.0" x2="423.0" y2="206.0" stroke="#333" stroke-width="2"/>
<rect x="429.0" y="210.0" width="10.0" height="10.0" fill="none" stroke="#333" stroke-width="1"/>
<line x1="417.0" y1="215.0" x2="429.0" y2="215.0" stroke="#333" stroke-width="0.8" stroke-dasharray="2,1"/>
<text x="442.0" y="211.0" class="label" font-size="7" fill="#444">EXT PWR</text>
<text x="442.0" y="220.0" class="mono" font-size="6" fill="#888">[P]</text>
<line x1="542.0" y1="175.0" x2="542.0" y2="204.0" stroke="#333" stroke-width="1.5"/>
<line x1="542.0" y1="226.0" x2="542.0" y2="255.0" stroke="#333" stroke-width="1.5"/>
<circle cx="542.0" cy="224.0" r="2.5" fill="#333" stroke="none"/>
<circle cx="542.0" cy="206.0" r="2.5" fill="#333" stroke="none"/>
<line x1="542.0" y1="222.0" x2="542.0" y2="208.0" stroke="#333" stroke-width="2"/>
<text x="554.0" y="211.0" class="label" font-size="7" fill="#444">BATT</text>
<text x="554.0" y="220.0" class="mono" font-size="6" fill="#888">[P]</text>
<line x1="1064.0" y1="175.0" x2="1064.0" y2="204.0" stroke="#333" stroke-width="1.5"/>
<line x1="1064.0" y1="226.0" x2="1064.0" y2="255.0" stroke="#333" stroke-width="1.5"/>
<circle cx="1064.0" cy="224.0" r="2.5" fill="#333" stroke="none"/>
<circle cx="1064.0" cy="206.0" r="2.5" fill="#333" stroke="none"/>
<line x1="1064.0" y1="222.0" x2="1064.0" y2="208.0" stroke="#333" stroke-width="2"/>
<text x="1076.0" y="211.0" class="label" font-size="7" fill="#444">STBY BATT</text>
<text x="1076.0" y="220.0" class="mono" font-size="6" fill="#888">[P]</text>
<line x1="305.0" y1="262.0" x2="305.0" y2="336.0" stroke="#333" stroke-width="1.5"/>
<line x1="305.0" y1="358.0" x2="305.0" y2="432.0" stroke="#333" stroke-width="1.5"/>
<circle cx="305.0" cy="356.0" r="2.5" fill="#333" stroke="none"/>
<circle cx="305.0" cy="338.0" r="2.5" fill="#333" stroke="none"/>
<line x1="305.0" y1="354.0" x2="305.0" y2="340.0" stroke="#333" stroke-width="2"/>
<line x1="300.0" y1="345.5" x2="310.0" y2="345.5" stroke="#333" stroke-width="2"/>
<line x1="300.0" y1="348.5" x2="310.0" y2="348.5" stroke="#333" stroke-width="2"/>
<text x="317.0" y="343.0" class="label" font-size="7" fill="#444">BUS TIE</text>
<text x="317.0" y="352.0" class="mono" font-size="6" fill="#888">[P]</text>
<line x1="480.0" y1="262.0" x2="480.0" y2="336.0" stroke="#333" stroke-width="1.5"/>
<line x1="480.0" y1="358.0" x2="480.0" y2="432.0" stroke="#333" stroke-width="1.5"/>
<circle cx="480.0" cy="356.0" r="2.5" fill="#333" stroke="none"/>
<circle cx="480.0" cy="338.0" r="2.5" fill="#333" stroke="none"/>
<line x1="480.0" y1="354.0" x2="480.0" y2="340.0" stroke="#333" stroke-width="2"/>
<rect x="495.0" y="342.0" width="10.0" height="10.0" fill="none" stroke="#333" stroke-width="1"/>
<line x1="483.0" y1="347.0" x2="495.0" y2="347.0" stroke="#333" stroke-width="0.8" stroke-dasharray="2,1"/>
<text x="508.0" y="350.0" class="mono" font-size="5" fill="#999">ess_bus</text>
<text x="508.0" y="343.0" class="label" font-size="7" fill="#444">BATT BUS TIE</text>
<text x="508.0" y="352.0" class="mono" font-size="6" fill="#888">[A]</text>
<line x1="414.0" y1="262.0" x2="414.0" y2="329.0" stroke="#333" stroke-width="1.5"/>
<line x1="414.0" y1="329.0" x2="481.5" y2="329.0" stroke="#333" stroke-width="1.5"/>
<line x1="481.5" y1="329.0" x2="481.5" y2="336.0" stroke="#333" stroke-width="1.5"/>
<line x1="481.5" y1="358.0" x2="481.5" y2="365.0" stroke="#333" stroke-width="1.5"/>
<circle cx="481.5" cy="356.0" r="2.5" fill="#333" stroke="none"/>
<circle cx="481.5" cy="338.0" r="2.5" fill="#333" stroke="none"/>
<line x1="481.5" y1="354.0" x2="481.5" y2="340.0" stroke="#333" stroke-width="2"/>
<text x="493.5" y="343.0" class="label" font-size="7" fill="#444">AVIONICS MASTER</text>
<text x="493.5" y="352.0" class="mono" font-size="6" fill="#888">[P]</text>
<line x1="481.5" y1="365.0" x2="549.0" y2="365.0" stroke="#333" stroke-width="1.5"/>
<line x1="549.0" y1="365.0" x2="549.0" y2="432.0" stroke="#333" stroke-width="1.5"/>
<line x1="414.0" y1="262.0" x2="414.0" y2="329.0" stroke="#333" stroke-width="1.5"/>
<line x1="414.0" y1="329.0" x2="647.5" y2="329.0" stroke="#333" stroke-width="1.5"/>
<line x1="647.5" y1="329.0" x2="647.5" y2="336.0" stroke="#333" stroke-width="1.5"/>
<line x1="647.5" y1="358.0" x2="647.5" y2="365.0" stroke="#333" stroke-width="1.5"/>
<circle cx="647.5" cy="356.0" r="2.5" fill="#333" stroke="none"/>
<circle cx="647.5" cy="338.0" r="2.5" fill="#333" stroke="none"/>
<line x1="647.5" y1="354.0" x2="647.5" y2="340.0" stroke="#333" stroke-width="2"/>
<rect x="662.5" y="342.0" width="10.0" height="10.0" fill="none" stroke="#333" stroke-width="1"/>
<line x1="650.5" y1="347.0" x2="662.5" y2="347.0" stroke="#333" stroke-width="0.8" stroke-dasharray="2,1"/>
<text x="675.5" y="350.0" class="mono" font-size="5" fill="#999">main_dc_bus</text>
<text x="675.5" y="343.0" class="label" font-size="7" fill="#444">NON-ESS RELAY</text>
<text x="675.5" y="352.0" class="mono" font-size="6" fill="#888">[A]</text>
<line x1="647.5" y1="365.0" x2="881.0" y2="365.0" stroke="#333" stroke-width="1.5"/>
<line x1="881.0" y1="365.0" x2="881.0" y2="432.0" stroke="#333" stroke-width="1.5"/>
<line x1="542.0" y1="175.0" x2="670.0" y2="255.0" stroke="#E65100" stroke-width="2.5" stroke-dasharray="6,3"/>
<text x="614.0" y="215.0" class="label" font-size="7" font-weight="bold" fill="#E65100">DIRECT</text>
<line x1="592.0" y1="439.0" x2="592.0" y2="485.0" stroke="#666" stroke-width="1"/>
<circle cx="592.0" cy="452.8" r="5.0" fill="white" stroke="#C62828" stroke-width="1.4"/>
<line x1="589.0" y1="449.8" x2="595.0" y2="455.8" stroke="#C62828" stroke-width="1.2"/>
<line x1="589.0" y1="455.8" x2="595.0" y2="449.8" stroke="#C62828" stroke-width="1.2"/>
<text x="600.0" y="455.8" class="mono" font-size="6" fill="#C62828">5.0A</text>
<rect x="553.0" y="485.0" width="78.0" height="48.0" rx="3" fill="#FAFAFA" stroke="#616161" stroke-width="1.2"/>
<text x="592.0" y="505.0" class="label" font-size="7" font-weight="bold" text-anchor="middle">FMS</text>
<text x="592.0" y="516.0" class="mono" font-size="6" text-anchor="middle" fill="#666">2.5A</text>
<text x="592.0" y="525.0" class="mono" font-size="5" text-anchor="middle" fill="#999">fms_display</text>
<line x1="682.0" y1="439.0" x2="682.0" y2="485.0" stroke="#666" stroke-width="1"/>
<circle cx="682.0" cy="452.8" r="5.0" fill="white" stroke="#C62828" stroke-width="1.4"/>
<line x1="679.0" y1="449.8" x2="685.0" y2="455.8" stroke="#C62828" stroke-width="1.2"/>
<line x1="679.0" y1="455.8" x2="685.0" y2="449.8" stroke="#C62828" stroke-width="1.2"/>
<text x="690.0" y="455.8" class="mono" font-size="6" fill="#C62828">5.0A</text>
<rect x="643.0" y="485.0" width="78.0" height="48.0" rx="3" fill="#FFEBEE" stroke="#C62828" stroke-width="1.2"/>
<text x="682.0" y="505.0" class="label" font-size="7" font-weight="bold" text-anchor="middle">COM 1</text>
<text x="682.0" y="516.0" class="mono" font-size="6" text-anchor="middle" fill="#666">3.0A</text>
<text x="682.0" y="525.0" class="mono" font-size="5" text-anchor="middle" fill="#999">vhf_com1</text>
<line x1="170.0" y1="439.0" x2="170.0" y2="485.0" stroke="#666" stroke-width="1"/>
<circle cx="170.0" cy="452.8" r="5.0" fill="white" stroke="#C62828" stroke-width="1.4"/>
<line x1="167.0" y1="449.8" x2="173.0" y2="455.8" stroke="#C62828" stroke-width="1.2"/>
<line x1="167.0" y1="455.8" x2="173.0" y2="449.8" stroke="#C62828" stroke-width="1.2"/>
<text x="178.0" y="455.8" class="mono" font-size="6" fill="#C62828">5.0A</text>
<rect x="131.0" y="485.0" width="78.0" height="48.0" rx="3" fill="#FFEBEE" stroke="#C62828" stroke-width="1.2"/>
<text x="170.0" y="505.0" class="label" font-size="7" font-weight="bold" text-anchor="middle">COM 2</text>
<text x="170.0" y="516.0" class="mono" font-size="6" text-anchor="middle" fill="#666">3.0A</text>
<text x="170.0" y="525.0" class="mono" font-size="5" text-anchor="middle" fill="#999">vhf_com2</text>
<line x1="772.0" y1="439.0" x2="772.0" y2="485.0" stroke="#666" stroke-width="1"/>
<circle cx="772.0" cy="452.8" r="5.0" fill="white" stroke="#C62828" stroke-width="1.4"/>
<line x1="769.0" y1="449.8" x2="775.0" y2="455.8" stroke="#C62828" stroke-width="1.2"/>
<line x1="769.0" y1="455.8" x2="775.0" y2="449.8" stroke="#C62828" stroke-width="1.2"/>
<text x="780.0" y="455.8" class="mono" font-size="6" fill="#C62828">5.0A</text>
<rect x="733.0" y="485.0" width="78.0" height="48.0" rx="3" fill="#FAFAFA" stroke="#616161" stroke-width="1.2"/>
<text x="772.0" y="505.0" class="label" font-size="7" font-weight="bold" text-anchor="middle">NAV/GPS</text>
<text x="772.0" y="516.0" class="mono" font-size="6" text-anchor="middle" fill="#666">2.0A</text>
<text x="772.0" y="525.0" class="mono" font-size="5" text-anchor="middle" fill="#999">gps_nav</text>
<line x1="260.0" y1="439.0" x2="260.0" y2="485.0" stroke="#666" stroke-width="1"/>
<circle cx="260.0" cy="452.8" r="5.0" fill="white" stroke="#C62828" stroke-width="1.4"/>
<line x1="257.0" y1="449.8" x2="263.0" y2="455.8" stroke="#C62828" stroke-width="1.2"/>
<line x1="257.0" y1="455.8" x2="263.0" y2="449.8" stroke="#C62828" stroke-width="1.2"/>
<text x="268.0" y="455.8" class="mono" font-size="6" fill="#C62828">3.0A</text>
<rect x="221.0" y="485.0" width="78.0" height="48.0" rx="3" fill="#FFEBEE" stroke="#C62828" stroke-width="1.2"/>
<text x="260.0" y="505.0" class="label" font-size="7" font-weight="bold" text-anchor="middle">ADC</text>
<text x="260.0" y="516.0" class="mono" font-size="6" text-anchor="middle" fill="#666">1.5A</text>
<text x="260.0" y="525.0" class="mono" font-size="5" text-anchor="middle" fill="#999">air_data</text>
<line x1="350.0" y1="439.0" x2="350.0" y2="485.0" stroke="#666" stroke-width="1"/>
<circle cx="350.0" cy="452.8" r="5.0" fill="white" stroke="#C62828" stroke-width="1.4"/>
<line x1="347.0" y1="449.8" x2="353.0" y2="455.8" stroke="#C62828" stroke-width="1.2"/>
<line x1="347.0" y1="455.8" x2="353.0" y2="449.8" stroke="#C62828" stroke-width="1.2"/>
<text x="358.0" y="455.8" class="mono" font-size="6" fill="#C62828">5.0A</text>
<rect x="311.0" y="485.0" width="78.0" height="48.0" rx="3" fill="#FFEBEE" stroke="#C62828" stroke-width="1.2"/>
<text x="350.0" y="505.0" class="label" font-size="7" font-weight="bold" text-anchor="middle">AHRS</text>
<text x="350.0" y="516.0" class="mono" font-size="6" text-anchor="middle" fill="#666">2.0A</text>
<text x="350.0" y="525.0" class="mono" font-size="5" text-anchor="middle" fill="#999">attitude_heading</text>
<line x1="101.0" y1="262.0" x2="101.0" y2="308.0" stroke="#666" stroke-width="1"/>
<circle cx="101.0" cy="275.8" r="5.0" fill="white" stroke="#C62828" stroke-width="1.4"/>
<line x1="98.0" y1="272.8" x2="104.0" y2="278.8" stroke="#C62828" stroke-width="1.2"/>
<line x1="98.0" y1="278.8" x2="104.0" y2="272.8" stroke="#C62828" stroke-width="1.2"/>
<text x="109.0" y="278.8" class="mono" font-size="6" fill="#C62828">7.5A</text>
<rect x="62.0" y="308.0" width="78.0" height="48.0" rx="3" fill="#FAFAFA" stroke="#616161" stroke-width="1.2"/>
<text x="101.0" y="328.0" class="label" font-size="7" font-weight="bold" text-anchor="middle">AUTOPILOT</text>
<text x="101.0" y="339.0" class="mono" font-size="6" text-anchor="middle" fill="#666">4.0A</text>
<text x="101.0" y="348.0" class="mono" font-size="5" text-anchor="middle" fill="#999">afcs</text>
<line x1="191.0" y1="262.0" x2="191.0" y2="308.0" stroke="#666" stroke-width="1"/>
<circle cx="191.0" cy="275.8" r="5.0" fill="white" stroke="#C62828" stroke-width="1.4"/>
<line x1="188.0" y1="272.8" x2="194.0" y2="278.8" stroke="#C62828" stroke-width="1.2"/>
<line x1="188.0" y1="278.8" x2="194.0" y2="272.8" stroke="#C62828" stroke-width="1.2"/>
<text x="199.0" y="278.8" class="mono" font-size="6" fill="#C62828">15.0A</text>
<rect x="152.0" y="308.0" width="78.0" height="48.0" rx="3" fill="#E8F5E9" stroke="#2E7D32" stroke-width="1.2"/>
<circle cx="191.0" cy="324.0" r="9.0" fill="none" stroke="#2E7D32" stroke-width="1.2"/>
<text x="191.0" y="327.0" class="label" font-size="9" font-weight="bold" text-anchor="middle" fill="#2E7D32">M</text>
<text x="191.0" y="339.0" class="label" font-size="7" font-weight="bold" text-anchor="middle">FUEL PUMP L</text>
<text x="191.0" y="350.0" class="mono" font-size="6" text-anchor="middle" fill="#666">8.0A</text>
<text x="191.0" y="359.0" class="mono" font-size="5" text-anchor="middle" fill="#999">fuel_system_left</text>
<line x1="281.0" y1="262.0" x2="281.0" y2="308.0" stroke="#666" stroke-width="1"/>
<circle cx="281.0" cy="275.8" r="5.0" fill="white" stroke="#C62828" stroke-width="1.4"/>
<line x1="278.0" y1="272.8" x2="284.0" y2="278.8" stroke="#C62828" stroke-width="1.2"/>
<line x1="278.0" y1="278.8" x2="284.0" y2="272.8" stroke="#C62828" stroke-width="1.2"/>
<text x="289.0" y="278.8" class="mono" font-size="6" fill="#C62828">15.0A</text>
<rect x="242.0" y="308.0" width="78.0" height="48.0" rx="3" fill="#E8F5E9" stroke="#2E7D32" stroke-width="1.2"/>
<circle cx="281.0" cy="324.0" r="9.0" fill="none" stroke="#2E7D32" stroke-width="1.2"/>
<text x="281.0" y="327.0" class="label" font-size="9" font-weight="bold" text-anchor="middle" fill="#2E7D32">M</text>
<text x="281.0" y="339.0" class="label" font-size="7" font-weight="bold" text-anchor="middle">FUEL PUMP R</text>
<text x="281.0" y="350.0" class="mono" font-size="6" text-anchor="middle" fill="#666">8.0A</text>
<text x="281.0" y="359.0" class="mono" font-size="5" text-anchor="middle" fill="#999">fuel_system_right</text>
<line x1="371.0" y1="262.0" x2="371.0" y2="308.0" stroke="#666" stroke-width="1"/>
<circle cx="371.0" cy="275.8" r="5.0" fill="white" stroke="#C62828" stroke-width="1.4"/>
<line x1="368.0" y1="272.8" x2="374.0" y2="278.8" stroke="#C62828" stroke-width="1.2"/>
<line x1="368.0" y1="278.8" x2="374.0" y2="272.8" stroke="#C62828" stroke-width="1.2"/>
<text x="379.0" y="278.8" class="mono" font-size="6" fill="#C62828">25.0A</text>
<rect x="332.0" y="308.0" width="78.0" height="48.0" rx="3" fill="#E8F5E9" stroke="#2E7D32" stroke-width="1.2"/>
<circle cx="371.0" cy="324.0" r="9.0" fill="none" stroke="#2E7D32" stroke-width="1.2"/>
<text x="371.0" y="327.0" class="label" font-size="9" font-weight="bold" text-anchor="middle" fill="#2E7D32">M</text>
<text x="371.0" y="339.0" class="label" font-size="7" font-weight="bold" text-anchor="middle">AUX HYD PUMP</text>
<text x="371.0" y="350.0" class="mono" font-size="6" text-anchor="middle" fill="#666">15.0A</text>
<text x="371.0" y="359.0" class="mono" font-size="5" text-anchor="middle" fill="#999">hydraulic_aux</text>
<line x1="440.0" y1="439.0" x2="440.0" y2="485.0" stroke="#666" stroke-width="1"/>
<circle cx="440.0" cy="452.8" r="5.0" fill="white" stroke="#C62828" stroke-width="1.4"/>
<line x1="437.0" y1="449.8" x2="443.0" y2="455.8" stroke="#C62828" stroke-width="1.2"/>
<line x1="437.0" y1="455.8" x2="443.0" y2="449.8" stroke="#C62828" stroke-width="1.2"/>
<text x="448.0" y="455.8" class="mono" font-size="6" fill="#C62828">10.0A</text>
<rect x="401.0" y="485.0" width="78.0" height="48.0" rx="3" fill="#FFEBEE" stroke="#C62828" stroke-width="1.2"/>
<polyline points="430.0,499.0 435.0,495.0 440.0,503.0 445.0,495.0 450.0,503.0" fill="none" stroke="#C62828" stroke-width="1"/>
<text x="440.0" y="513.0" class="label" font-size="7" font-weight="bold" text-anchor="middle">PITOT HEAT</text>
<text x="440.0" y="524.0" class="mono" font-size="6" text-anchor="middle" fill="#666">5.0A</text>
<text x="440.0" y="533.0" class="mono" font-size="5" text-anchor="middle" fill="#999">pitot_static</text>
<line x1="924.0" y1="439.0" x2="924.0" y2="485.0" stroke="#666" stroke-width="1"/>
<circle cx="924.0" cy="452.8" r="5.0" fill="white" stroke="#C62828" stroke-width="1.4"/>
<line x1="921.0" y1="449.8" x2="927.0" y2="455.8" stroke="#C62828" stroke-width="1.2"/>
<line x1="921.0" y1="455.8" x2="927.0" y2="449.8" stroke="#C62828" stroke-width="1.2"/>
<text x="932.0" y="455.8" class="mono" font-size="6" fill="#C62828">15.0A</text>
<rect x="885.0" y="485.0" width="78.0" height="48.0" rx="3" fill="#FFF3E0" stroke="#E65100" stroke-width="1.2"/>
<polyline points="914.0,499.0 919.0,495.0 924.0,503.0 929.0,495.0 934.0,503.0" fill="none" stroke="#E65100" stroke-width="1"/>
<text x="924.0" y="513.0" class="label" font-size="7" font-weight="bold" text-anchor="middle">LANDING LT</text>
<text x="924.0" y="524.0" class="mono" font-size="6" text-anchor="middle" fill="#666">10.0A</text>
<text x="924.0" y="533.0" class="mono" font-size="5" text-anchor="middle" fill="#999">external_lights</text>
<line x1="1014.0" y1="439.0" x2="1014.0" y2="485.0" stroke="#666" stroke-width="1"/>
<circle cx="1014.0" cy="452.8" r="5.0" fill="white" stroke="#C62828" stroke-width="1.4"/>
<line x1="1011.0" y1="449.8" x2="1017.0" y2="455.8" stroke="#C62828" stroke-width="1.2"/>
<line x1="1011.0" y1="455.8" x2="1017.0" y2="449.8" stroke="#C62828" stroke-width="1.2"/>
<text x="1022.0" y="455.8" class="mono" font-size="6" fill="#C62828">5.0A</text>
<rect x="975.0" y="485.0" width="78.0" height="48.0" rx="3" fill="#FFF3E0" stroke="#E65100" stroke-width="1.2"/>
<polyline points="1004.0,499.0 1009.0,495.0 1014.0,503.0 1019.0,495.0 1024.0,503.0" fill="none" stroke="#E65100" stroke-width="1"/>
<text x="1014.0" y="513.0" class="label" font-size="7" font-weight="bold" text-anchor="middle">CABIN LT</text>
<text x="1014.0" y="524.0" class="mono" font-size="6" text-anchor="middle" fill="#666">3.0A</text>
<text x="1014.0" y="533.0" class="mono" font-size="5" text-anchor="middle" fill="#999">cabin_lighting</text>
<line x1="713.0" y1="262.0" x2="713.0" y2="308.0" stroke="#666" stroke-width="1"/>
<circle cx="713.0" cy="275.8" r="5.0" fill="white" stroke="#C62828" stroke-width="1.4"/>
<line x1="710.0" y1="272.8" x2="716.0" y2="278.8" stroke="#C62828" stroke-width="1.2"/>
<line x1="710.0" y1="278.8" x2="716.0" y2="272.8" stroke="#C62828" stroke-width="1.2"/>
<text x="721.0" y="278.8" class="mono" font-size="6" fill="#C62828">2.0A</text>
<rect x="674.0" y="308.0" width="78.0" height="48.0" rx="3" fill="#FFEBEE" stroke="#C62828" stroke-width="1.2"/>
<text x="713.0" y="328.0" class="label" font-size="7" font-weight="bold" text-anchor="middle">CAUTION PNL</text>
<text x="713.0" y="339.0" class="mono" font-size="6" text-anchor="middle" fill="#666">0.5A</text>
<text x="713.0" y="348.0" class="mono" font-size="5" text-anchor="middle" fill="#999">cas</text>
<line x1="803.0" y1="262.0" x2="803.0" y2="308.0" stroke="#666" stroke-width="1"/>
<circle cx="803.0" cy="275.8" r="5.0" fill="white" stroke="#C62828" stroke-width="1.4"/>
<line x1="800.0" y1="272.8" x2="806.0" y2="278.8" stroke="#C62828" stroke-width="1.2"/>
<line x1="800.0" y1="278.8" x2="806.0" y2="272.8" stroke="#C62828" stroke-width="1.2"/>
<text x="811.0" y="278.8" class="mono" font-size="6" fill="#C62828">2.0A</text>
<rect x="764.0" y="308.0" width="78.0" height="48.0" rx="3" fill="#FFEBEE" stroke="#C62828" stroke-width="1.2"/>
<text x="803.0" y="328.0" class="label" font-size="7" font-weight="bold" text-anchor="middle">FIRE DET</text>
<text x="803.0" y="339.0" class="mono" font-size="6" text-anchor="middle" fill="#666">0.3A</text>
<text x="803.0" y="348.0" class="mono" font-size="5" text-anchor="middle" fill="#999">fire_detection</text>
<line x1="893.0" y1="262.0" x2="893.0" y2="308.0" stroke="#666" stroke-width="1"/>
<circle cx="893.0" cy="275.8" r="5.0" fill="white" stroke="#C62828" stroke-width="1.4"/>
<line x1="890.0" y1="272.8" x2="896.0" y2="278.8" stroke="#C62828" stroke-width="1.2"/>
<line x1="890.0" y1="278.8" x2="896.0" y2="272.8" stroke="#C62828" stroke-width="1.2"/>
<text x="901.0" y="278.8" class="mono" font-size="6" fill="#C62828">1.0A</text>
<rect x="854.0" y="308.0" width="78.0" height="48.0" rx="3" fill="#FFEBEE" stroke="#C62828" stroke-width="1.2"/>
<text x="893.0" y="328.0" class="label" font-size="7" font-weight="bold" text-anchor="middle">ELT</text>
<text x="893.0" y="339.0" class="mono" font-size="6" text-anchor="middle" fill="#666">0.1A</text>
<text x="893.0" y="348.0" class="mono" font-size="5" text-anchor="middle" fill="#999">emergency_locator</text>
<line x1="1064.0" y1="262.0" x2="1064.0" y2="308.0" stroke="#666" stroke-width="1"/>
<circle cx="1064.0" cy="275.8" r="5.0" fill="white" stroke="#C62828" stroke-width="1.4"/>
<line x1="1061.0" y1="272.8" x2="1067.0" y2="278.8" stroke="#C62828" stroke-width="1.2"/>
<line x1="1061.0" y1="278.8" x2="1067.0" y2="272.8" stroke="#C62828" stroke-width="1.2"/>
<text x="1072.0" y="278.8" class="mono" font-size="6" fill="#C62828">3.0A</text>
<rect x="1025.0" y="308.0" width="78.0" height="48.0" rx="3" fill="#FFEBEE" stroke="#C62828" stroke-width="1.2"/>
<text x="1064.0" y="328.0" class="label" font-size="7" font-weight="bold" text-anchor="middle">STBY INSTRUMENTS</text>
<text x="1064.0" y="339.0" class="mono" font-size="6" text-anchor="middle" fill="#666">1.0A</text>
<text x="1064.0" y="348.0" class="mono" font-size="5" text-anchor="middle" fill="#999">stby_attitude, stby_altimeter</text>
<rect x="1189.0" y="105.0" width="185.0" height="260.0" rx="4" fill="#F5F5F5" stroke="#BDBDBD" stroke-width="1"/>
<text x="1281.5" y="121.0" class="label" font-size="10" font-weight="bold" text-anchor="middle">LEGEND</text>
<circle cx="1211.0" cy="141.0" r="2.5" fill="#333" stroke="none"/>
<circle cx="1211.0" cy="129.0" r="2.5" fill="none" stroke="#333" stroke-width="1.3"/>
<line x1="1211.0" y1="139.0" x2="1219.0" y2="129.0" stroke="#333" stroke-width="1.8"/>
<text x="1229.0" y="137.0" class="label" font-size="7" fill="#333">Normally Open switch</text>
<circle cx="1211.0" cy="165.0" r="2.5" fill="#333" stroke="none"/>
<circle cx="1211.0" cy="153.0" r="2.5" fill="#333" stroke="none"/>
<line x1="1211.0" y1="163.0" x2="1211.0" y2="155.0" stroke="#333" stroke-width="1.8"/>
<text x="1229.0" y="161.0" class="label" font-size="7" fill="#333">Normally Closed switch</text>
<rect x="1207.0" y="184.0" width="8.0" height="8.0" fill="none" stroke="#333" stroke-width="1"/>
<text x="1229.0" y="190.0" class="label" font-size="7" fill="#333">Contactor / Relay coil</text>
<circle cx="1211.0" cy="211.0" r="4.0" fill="white" stroke="#C62828" stroke-width="1.3"/>
<line x1="1209.0" y1="209.0" x2="1213.0" y2="213.0" stroke="#C62828" stroke-width="1"/>
<line x1="1209.0" y1="213.0" x2="1213.0" y2="209.0" stroke="#C62828" stroke-width="1"/>
<text x="1229.0" y="214.0" class="label" font-size="7" fill="#333">Circuit Breaker</text>
<line x1="1203.0" y1="233.0" x2="1219.0" y2="233.0" stroke="#E65100" stroke-width="2" stroke-dasharray="4,2"/>
<text x="1229.0" y="236.0" class="label" font-size="7" fill="#333">Direct connection</text>
<text x="1203.0" y="255.0" class="mono" font-size="7" fill="#555">[P] Pilot   [A] Auto</text>
<rect x="1203.0" y="274.0" width="18.0" height="6.0" fill="#37474F" rx="1"/>
<text x="1229.0" y="279.0" class="label" font-size="7" fill="#333">Normal bus</text>
<rect x="1203.0" y="290.0" width="18.0" height="6.0" fill="#C62828" rx="1"/>
<text x="1229.0" y="295.0" class="label" font-size="7" fill="#333">Essential bus</text>
<rect x="1203.0" y="306.0" width="18.0" height="6.0" fill="#E65100" rx="1"/>
<text x="1229.0" y="311.0" class="label" font-size="7" fill="#333">Low-shed-priority bus</text>
<rect x="1203.0" y="326.0" width="18.0" height="11.0" rx="2" fill="#FFEBEE" stroke="#C62828" stroke-width="1"/>
<text x="1229.0" y="334.0" class="label" font-size="7" fill="#333">Essential load</text>
<rect x="1203.0" y="343.0" width="18.0" height="11.0" rx="2" fill="#E8F5E9" stroke="#2E7D32" stroke-width="1"/>
<text x="1229.0" y="351.0" class="label" font-size="7" fill="#333">Motor load</text>
<rect x="1203.0" y="360.0" width="18.0" height="11.0" rx="2" fill="#FFF3E0" stroke="#E65100" stroke-width="1"/>
<text x="1229.0" y="368.0" class="label" font-size="7" fill="#333">Resistive load</text>
<rect x="1203.0" y="377.0" width="18.0" height="11.0" rx="2" fill="#FAFAFA" stroke="#616161" stroke-width="1"/>
<text x="1229.0" y="385.0" class="label" font-size="7" fill="#333">Standard load</text>
<rect x="1189.0" y="375.0" width="185.0" height="126.0" rx="4" fill="#FFF8E1" stroke="#FFB300" stroke-width="1"/>
<text x="1281.5" y="391.0" class="label" font-size="9" font-weight="bold" text-anchor="middle" fill="#E65100">CAS ALERTS</text>
<text x="1199.0" y="407.0" class="mono" font-size="7" fill="#C62828">[W] GEN 1 FAIL</text>
<text x="1203.0" y="416.0" class="mono" font-size="5" fill="#999">source_fail gen1</text>
<text x="1199.0" y="427.0" class="mono" font-size="7" fill="#C62828">[W] GEN 2 FAIL</text>
<text x="1203.0" y="436.0" class="mono" font-size="5" fill="#999">source_fail gen2</text>
<text x="1199.0" y="447.0" class="mono" font-size="7" fill="#C62828">[W] MAIN BUS OFF</text>
<text x="1203.0" y="456.0" class="mono" font-size="5" fill="#999">bus_dead main_dc_bus</text>
<text x="1199.0" y="467.0" class="mono" font-size="7" fill="#C62828">[W] ESS BUS OFF</text>
<text x="1203.0" y="476.0" class="mono" font-size="5" fill="#999">bus_dead ess_bus</text>
<text x="1199.0" y="487.0" class="mono" font-size="7" fill="#E65100">[C] BATT LOW</text>
<text x="1203.0" y="496.0" class="mono" font-size="5" fill="#999">low_soc batt1 &lt;20</text>
<text x="1199.0" y="507.0" class="mono" font-size="7" fill="#C62828">[W] BATT DEPLETED</text>
<text x="1203.0" y="516.0" class="mono" font-size="5" fill="#999">low_soc batt1 &lt;5</text>
<text x="1199.0" y="527.0" class="mono" font-size="7" fill="#E65100">[C] LOW VOLTS</text>
<text x="1203.0" y="536.0" class="mono" font-size="5" fill="#999">low_voltage main_dc_bus &lt;24.0</text>
</svg>